<svg width="112" height="12" viewBox="0 0 112 12" fill="none" xmlns="http://www.w3.org/2000/svg">
<g clip-path="url(#clip0_1_690)">
<path d="M24.4942 0.760315H26.2378L22.6378 11.04H20.866L17.28 0.760315H19.0097L21.1543 7.15171C21.2667 7.45642 21.3863 7.85016 21.5128 8.33297C21.6394 8.8111 21.7214 9.16736 21.7589 9.40172C21.8199 9.04548 21.9136 8.63297 22.0402 8.16423C22.1667 7.69548 22.2699 7.34859 22.3495 7.12359L24.4942 0.760315Z" fill="#253858"/>
<path d="M32.2848 11.04L31.9543 9.95719H31.8979C31.5231 10.4306 31.1455 10.7541 30.7659 10.9275C30.3862 11.0963 29.8987 11.1806 29.3035 11.1806C28.5394 11.1806 27.9418 10.9744 27.5105 10.5619C27.084 10.1494 26.8707 9.56577 26.8707 8.81109C26.8707 8.00951 27.1683 7.40483 27.7637 6.99703C28.3589 6.58922 29.2659 6.36655 30.4848 6.32906L31.8276 6.28687V5.87203C31.8276 5.37515 31.7105 5.00483 31.476 4.76109C31.2463 4.51264 30.8878 4.38844 30.4003 4.38844C30.0019 4.38844 29.6199 4.44703 29.2543 4.56422C28.8886 4.68141 28.537 4.81967 28.1995 4.97906L27.6651 3.7978C28.087 3.57748 28.5487 3.41109 29.0503 3.29858C29.5519 3.18141 30.0252 3.1228 30.4707 3.1228C31.4597 3.1228 32.2051 3.33844 32.7065 3.76967C33.2129 4.20093 33.4659 4.87828 33.4659 5.80171V11.04H32.2848ZM29.8239 9.91499C30.4239 9.91499 30.9043 9.74858 31.2651 9.41577C31.6308 9.07828 31.8137 8.60719 31.8137 8.00251V7.32748L30.8151 7.36967C30.037 7.3978 29.4699 7.52906 29.1137 7.76344C28.7621 7.99312 28.5862 8.34703 28.5862 8.82515C28.5862 9.17203 28.6894 9.44155 28.8955 9.63374C29.1019 9.82125 29.4113 9.91499 29.8239 9.91499Z" fill="#253858"/>
<path d="M42.6137 11.04H40.9543V6.25873C40.9543 5.65873 40.8324 5.21109 40.5885 4.91577C40.3495 4.62047 39.9674 4.4728 39.4425 4.4728C38.7487 4.4728 38.2377 4.68141 37.9097 5.09857C37.5861 5.51109 37.4246 6.20483 37.4246 7.17983V11.04H35.7722V0.0993652H37.4246V2.8767C37.4246 3.32202 37.3963 3.7978 37.3401 4.30405H37.4455C37.6706 3.92905 37.9824 3.63844 38.3808 3.43218C38.784 3.22593 39.2527 3.1228 39.7869 3.1228C41.6714 3.1228 42.6137 4.07202 42.6137 5.97047V11.04Z" fill="#253858"/>
<path d="M49.7784 11.04L49.4479 9.95719H49.3918C49.0167 10.4306 48.6394 10.7541 48.2597 10.9275C47.88 11.0963 47.3926 11.1806 46.7971 11.1806C46.0332 11.1806 45.4354 10.9744 45.0043 10.5619C44.5776 10.1494 44.3645 9.56577 44.3645 8.81109C44.3645 8.00951 44.6621 7.40483 45.2573 6.99703C45.8527 6.58922 46.7597 6.36655 47.9784 6.32906L49.3215 6.28687V5.87203C49.3215 5.37515 49.2043 5.00483 48.9699 4.76109C48.7402 4.51264 48.3816 4.38844 47.8942 4.38844C47.4955 4.38844 47.1137 4.44703 46.7479 4.56422C46.3824 4.68141 46.0308 4.81967 45.6934 4.97906L45.1589 3.7978C45.5808 3.57748 46.0426 3.41109 46.5442 3.29858C47.0455 3.18141 47.5191 3.1228 47.9645 3.1228C48.9535 3.1228 49.6987 3.33844 50.2003 3.76967C50.7065 4.20093 50.9597 4.87828 50.9597 5.80171V11.04H49.7784ZM47.3175 9.91499C47.9175 9.91499 48.3979 9.74858 48.7589 9.41577C49.1247 9.07828 49.3073 8.60719 49.3073 8.00251V7.32748L48.3089 7.36967C47.5308 7.3978 46.9637 7.52906 46.6073 7.76344C46.2557 7.99312 46.08 8.34703 46.08 8.82515C46.08 9.17203 46.1832 9.44155 46.3894 9.63374C46.5955 9.82125 46.9051 9.91499 47.3175 9.91499Z" fill="#253858"/>
<path d="M60.1073 11.04H58.448V6.25874C58.448 5.65874 58.326 5.21109 58.0824 4.91577C57.8434 4.62048 57.4613 4.4728 56.9362 4.4728C56.2378 4.4728 55.7268 4.67906 55.4036 5.09155C55.08 5.50406 54.9183 6.19548 54.9183 7.16577V11.04H53.2659V3.26344H54.5597L54.7918 4.28296H54.876C55.1105 3.91264 55.4434 3.62671 55.8747 3.42515C56.3057 3.22358 56.784 3.1228 57.3089 3.1228C59.1747 3.1228 60.1073 4.07203 60.1073 5.97048V11.04Z" fill="#253858"/>
<path d="M67.2723 11.04L66.9418 9.95719H66.8854C66.5105 10.4306 66.1332 10.7541 65.7535 10.9275C65.3739 11.0963 64.8862 11.1806 64.291 11.1806C63.5268 11.1806 62.9292 10.9744 62.4979 10.5619C62.0714 10.1494 61.8581 9.56577 61.8581 8.81109C61.8581 8.00951 62.1557 7.40483 62.7511 6.99703C63.3463 6.58922 64.2535 6.36655 65.4723 6.32906L66.8151 6.28687V5.87203C66.8151 5.37515 66.6979 5.00483 66.4637 4.76109C66.234 4.51264 65.8752 4.38844 65.3878 4.38844C64.9894 4.38844 64.6073 4.44703 64.2418 4.56422C63.876 4.68141 63.5247 4.81967 63.187 4.97906L62.6527 3.7978C63.0747 3.57748 63.5362 3.41109 64.0378 3.29858C64.5394 3.18141 65.0129 3.1228 65.4581 3.1228C66.4471 3.1228 67.1926 3.33844 67.6942 3.76967C68.2003 4.20093 68.4535 4.87828 68.4535 5.80171V11.04H67.2723ZM64.8113 9.91499C65.4113 9.91499 65.8918 9.74858 66.2527 9.41577C66.6183 9.07828 66.8011 8.60719 66.8011 8.00251V7.32748L65.8027 7.36967C65.0247 7.3978 64.4573 7.52906 64.1011 7.76344C63.7495 7.99312 63.5739 8.34703 63.5739 8.82515C63.5739 9.17203 63.6768 9.44155 63.8832 9.63374C64.0894 9.82125 64.3987 9.91499 64.8113 9.91499Z" fill="#253858"/>
<path d="M79.134 1.68139C78.0043 1.68139 77.1113 2.05873 76.4549 2.81343C75.8035 3.56343 75.4776 4.59234 75.4776 5.90015C75.4776 7.24547 75.7918 8.28608 76.4199 9.02202C77.0527 9.75327 77.9527 10.1189 79.1199 10.1189C79.837 10.1189 80.6549 9.98999 81.5739 9.73218V10.7798C80.8613 11.047 79.9824 11.1806 78.937 11.1806C77.4231 11.1806 76.2535 10.7212 75.4284 9.8025C74.6081 8.88373 74.1979 7.57827 74.1979 5.88608C74.1979 4.8267 74.395 3.89857 74.7886 3.1017C75.187 2.30483 75.7589 1.69077 76.5043 1.25952C77.2543 0.828266 78.1354 0.61264 79.1479 0.61264C80.226 0.61264 81.1683 0.809517 81.9747 1.20327L81.4683 2.22983C80.6902 1.8642 79.9121 1.68139 79.134 1.68139Z" fill="#253858"/>
<path d="M84.8081 11.04H83.641V0.0993652H84.8081V11.04Z" fill="#253858"/>
<path d="M93.9348 7.17983C93.9348 8.43608 93.6182 9.41812 92.9853 10.1259C92.3527 10.8291 91.4784 11.1806 90.3629 11.1806C89.6738 11.1806 89.0621 11.0189 88.5276 10.6955C87.9933 10.372 87.5808 9.90796 87.2902 9.30328C86.9995 8.69857 86.8543 7.99076 86.8543 7.17983C86.8543 5.92357 87.1682 4.94624 87.7963 4.2478C88.4246 3.54467 89.2963 3.19312 90.4121 3.19312C91.4902 3.19312 92.3455 3.5517 92.9784 4.26889C93.6158 4.98608 93.9348 5.9564 93.9348 7.17983ZM88.0637 7.17983C88.0637 8.16421 88.2605 8.91421 88.6543 9.42983C89.0479 9.94547 89.6268 10.2033 90.3909 10.2033C91.1549 10.2033 91.734 9.9478 92.1276 9.43686C92.526 8.92124 92.7252 8.16889 92.7252 7.17983C92.7252 6.20015 92.526 5.45718 92.1276 4.95092C91.734 4.43999 91.1503 4.18451 90.3768 4.18451C89.6129 4.18451 89.0361 4.43531 88.6471 4.93686C88.2581 5.43844 88.0637 6.18608 88.0637 7.17983Z" fill="#253858"/>
<path d="M97.0848 3.33374V8.33296C97.0848 8.96109 97.2276 9.42984 97.5137 9.73922C97.7995 10.0486 98.2471 10.2033 98.8565 10.2033C99.6629 10.2033 100.251 9.98296 100.621 9.54235C100.996 9.10171 101.184 8.38219 101.184 7.38374V3.33374H102.351V11.04H101.388L101.219 10.0064H101.156C100.917 10.3861 100.584 10.6767 100.157 10.8783C99.7353 11.0798 99.2527 11.1806 98.7089 11.1806C97.7714 11.1806 97.0682 10.958 96.5995 10.5126C96.1353 10.0673 95.9035 9.35484 95.9035 8.37516V3.33374H97.0848Z" fill="#253858"/>
<path d="M110.078 10.0064H110.015C109.476 10.7892 108.67 11.1806 107.596 11.1806C106.589 11.1806 105.803 10.8361 105.241 10.147C104.683 9.45796 104.404 8.47828 104.404 7.20796C104.404 5.93764 104.685 4.95093 105.248 4.2478C105.81 3.54467 106.593 3.19312 107.596 3.19312C108.642 3.19312 109.443 3.5728 110.001 4.33218H110.093L110.043 3.7767L110.015 3.23531V0.0993652H111.182V11.04H110.233L110.078 10.0064ZM107.744 10.2033C108.541 10.2033 109.117 9.98764 109.474 9.55641C109.835 9.12047 110.015 8.41967 110.015 7.45405V7.20796C110.015 6.11577 109.832 5.33764 109.467 4.87357C109.106 4.40483 108.527 4.17047 107.73 4.17047C107.045 4.17047 106.521 4.43764 106.155 4.97202C105.794 5.5017 105.614 6.2517 105.614 7.22202C105.614 8.20641 105.794 8.94937 106.155 9.45093C106.516 9.9525 107.045 10.2033 107.744 10.2033Z" fill="#253858"/>
<path fill-rule="evenodd" clip-rule="evenodd" d="M0 0.720001L6.66943 11.982L13.3389 0.720001L8.89258 1.8462L7.67726 7.38708L0 0.720001Z" fill="#253858"/>
<path fill-rule="evenodd" clip-rule="evenodd" d="M6.66943 11.9819V6.51175L7.67741 7.38696L6.66943 11.9819Z" fill="#091E42"/>
<mask id="mask0_1_690" style="mask-type:alpha" maskUnits="userSpaceOnUse" x="0" y="0" width="14" height="12">
<path fill-rule="evenodd" clip-rule="evenodd" d="M6.66943 11.982L0 0.720001L6.66943 6.51187V11.982ZM7.67731 7.38689L8.89258 1.8462L13.3389 0.720001L6.66943 11.982L7.67741 7.38699L7.67731 7.38689Z" fill="white"/>
</mask>
<g mask="url(#mask0_1_690)">
</g>
</g>
<defs>
<clipPath id="clip0_1_690">
<rect width="111.36" height="12" fill="white"/>
</clipPath>
</defs>
</svg>
