<svg width="24" height="24" viewBox="0 0 24 24" fill="none" xmlns="http://www.w3.org/2000/svg">
<path fill-rule="evenodd" clip-rule="evenodd" d="M6 16C4.89533 16 4 16.8953 4 18C4 19.1047 4.89533 20 6 20C7.10467 20 8 19.1047 8 18C8 16.8953 7.10467 16 6 16Z" fill="#505F79"/>
<path fill-rule="evenodd" clip-rule="evenodd" d="M12 16C10.8953 16 10 16.8953 10 18C10 19.1047 10.8953 20 12 20C13.1047 20 14 19.1047 14 18C14 16.8953 13.1047 16 12 16Z" fill="#505F79"/>
<path fill-rule="evenodd" clip-rule="evenodd" d="M18 16C16.8953 16 16 16.8953 16 18C16 19.1047 16.8953 20 18 20C19.1047 20 20 19.1047 20 18C20 16.8953 19.1047 16 18 16Z" fill="#505F79"/>
<path fill-rule="evenodd" clip-rule="evenodd" d="M6 10C4.89533 10 4 10.8953 4 12C4 13.1047 4.89533 14 6 14C7.10467 14 8 13.1047 8 12C8 10.8953 7.10467 10 6 10Z" fill="#505F79"/>
<path fill-rule="evenodd" clip-rule="evenodd" d="M12 10C10.8953 10 10 10.8953 10 12C10 13.1047 10.8953 14 12 14C13.1047 14 14 13.1047 14 12C14 10.8953 13.1047 10 12 10Z" fill="#505F79"/>
<path fill-rule="evenodd" clip-rule="evenodd" d="M18 10C16.8953 10 16 10.8953 16 12C16 13.1047 16.8953 14 18 14C19.1047 14 20 13.1047 20 12C20 10.8953 19.1047 10 18 10Z" fill="#505F79"/>
<path fill-rule="evenodd" clip-rule="evenodd" d="M6 8C7.10467 8 8 7.10467 8 6C8 4.89533 7.10467 4 6 4C4.89533 4 4 4.89533 4 6C4 7.10467 4.89533 8 6 8Z" fill="#505F79"/>
<path fill-rule="evenodd" clip-rule="evenodd" d="M12 8C13.1047 8 14 7.10467 14 6C14 4.89533 13.1047 4 12 4C10.8953 4 10 4.89533 10 6C10 7.10467 10.8953 8 12 8Z" fill="#505F79"/>
<path fill-rule="evenodd" clip-rule="evenodd" d="M18 8C19.1047 8 20 7.10467 20 6C20 4.89533 19.1047 4 18 4C16.8953 4 16 4.89533 16 6C16 7.10467 16.8953 8 18 8Z" fill="#505F79"/>
</svg>
