<svg width="32" height="32" viewBox="0 0 32 32" fill="none" xmlns="http://www.w3.org/2000/svg">
<rect width="32" height="32" rx="16" fill="#172B4D"/>
<path fill-rule="evenodd" clip-rule="evenodd" d="M9.40625 9H17.9062C18.6844 9 19.3125 9.62809 19.3125 10.4062V16.0312C19.3125 16.8093 18.6844 17.4375 17.9062 17.4375H13.4375C13.3438 17.4375 13.2594 17.4656 13.1844 17.5125L13.0025 17.6325L12.8866 17.709C12.7608 17.7922 12.6355 17.8763 12.064 18.2597L12.0638 18.2598L10.6063 19.2375C10.6016 19.2422 10.5945 19.2445 10.5875 19.2469C10.5805 19.2492 10.5734 19.2516 10.5687 19.2563C10.2257 19.4277 9.875 19.1824 9.875 18.8438V17.4375H9.40625C8.62809 17.4375 8 16.8093 8 16.0312V10.4062C8 9.62809 8.62809 9 9.40625 9ZM10.3438 14.625H14.1562C14.7767 14.625 14.7742 13.6875 14.1562 13.6875H10.3438C9.72331 13.6875 9.72584 14.625 10.3438 14.625ZM16.9688 12.75H10.3438C9.72584 12.75 9.72331 11.8125 10.3438 11.8125H16.9688C17.5867 11.8125 17.5892 12.75 16.9688 12.75ZM20.25 12.75H22.5938C23.3719 12.75 24 13.3781 24 14.1562V19.7812C24 20.5593 23.3719 21.1875 22.5938 21.1875H22.125V22.5938C22.125 22.9434 21.761 23.1914 21.3937 22.9875L18.7031 21.1875H14.0938C13.3156 21.1875 12.6875 20.5593 12.6875 19.7812V18.9656L13.5781 18.375H17.9062C19.2 18.375 20.25 17.325 20.25 16.0312V12.75Z" fill="black"/>
<mask id="mask0_1_235" style="mask-type:luminance" maskUnits="userSpaceOnUse" x="8" y="9" width="16" height="15">
<path fill-rule="evenodd" clip-rule="evenodd" d="M9.40625 9H17.9062C18.6844 9 19.3125 9.62809 19.3125 10.4062V16.0312C19.3125 16.8093 18.6844 17.4375 17.9062 17.4375H13.4375C13.3438 17.4375 13.2594 17.4656 13.1844 17.5125L13.0025 17.6325L12.8866 17.709C12.7608 17.7922 12.6355 17.8763 12.064 18.2597L12.0638 18.2598L10.6063 19.2375C10.6016 19.2422 10.5945 19.2445 10.5875 19.2469C10.5805 19.2492 10.5734 19.2516 10.5687 19.2563C10.2257 19.4277 9.875 19.1824 9.875 18.8438V17.4375H9.40625C8.62809 17.4375 8 16.8093 8 16.0312V10.4062C8 9.62809 8.62809 9 9.40625 9ZM10.3438 14.625H14.1562C14.7767 14.625 14.7742 13.6875 14.1562 13.6875H10.3438C9.72331 13.6875 9.72584 14.625 10.3438 14.625ZM16.9688 12.75H10.3438C9.72584 12.75 9.72331 11.8125 10.3438 11.8125H16.9688C17.5867 11.8125 17.5892 12.75 16.9688 12.75ZM20.25 12.75H22.5938C23.3719 12.75 24 13.3781 24 14.1562V19.7812C24 20.5593 23.3719 21.1875 22.5938 21.1875H22.125V22.5938C22.125 22.9434 21.761 23.1914 21.3937 22.9875L18.7031 21.1875H14.0938C13.3156 21.1875 12.6875 20.5593 12.6875 19.7812V18.9656L13.5781 18.375H17.9062C19.2 18.375 20.25 17.325 20.25 16.0312V12.75Z" fill="white"/>
</mask>
<g mask="url(#mask0_1_235)">
<rect x="4" y="4" width="24" height="24" fill="white"/>
</g>
</svg>
