<svg width="17" height="12" viewBox="0 0 17 12" fill="none" xmlns="http://www.w3.org/2000/svg">
<path d="M7.51953 11L6.52148 8.22461H2.7002L1.72266 11H0L3.73926 0.964844H5.5166L9.25586 11H7.51953ZM6.09082 6.81641L5.1543 4.0957C5.08594 3.91341 4.99023 3.6263 4.86719 3.23438C4.7487 2.84245 4.66667 2.55534 4.62109 2.37305C4.49805 2.93359 4.31803 3.54655 4.08105 4.21191L3.17871 6.81641H6.09082ZM16.3379 8.28613C16.3379 9.1748 16.0166 9.87207 15.374 10.3779C14.7314 10.8838 13.8451 11.1367 12.7148 11.1367C11.5846 11.1367 10.6595 10.9613 9.93945 10.6104V9.06543C10.3952 9.27962 10.8783 9.44824 11.3887 9.57129C11.9036 9.69434 12.3822 9.75586 12.8242 9.75586C13.4714 9.75586 13.9476 9.63281 14.2529 9.38672C14.5628 9.14062 14.7178 8.81022 14.7178 8.39551C14.7178 8.02181 14.5765 7.70508 14.2939 7.44531C14.0114 7.18555 13.4281 6.87793 12.5439 6.52246C11.6325 6.15332 10.9899 5.73177 10.6162 5.25781C10.2425 4.78385 10.0557 4.21419 10.0557 3.54883C10.0557 2.71484 10.3519 2.05859 10.9443 1.58008C11.5368 1.10156 12.332 0.862305 13.3301 0.862305C14.2871 0.862305 15.2396 1.07194 16.1875 1.49121L15.668 2.82422C14.7793 2.45052 13.9863 2.26367 13.2891 2.26367C12.7604 2.26367 12.3594 2.37988 12.0859 2.6123C11.8125 2.84017 11.6758 3.14323 11.6758 3.52148C11.6758 3.78125 11.7305 4.00456 11.8398 4.19141C11.9492 4.3737 12.1292 4.54688 12.3799 4.71094C12.6305 4.875 13.0817 5.09147 13.7334 5.36035C14.4671 5.66569 15.0049 5.95052 15.3467 6.21484C15.6885 6.47917 15.9391 6.77767 16.0986 7.11035C16.2581 7.44303 16.3379 7.83496 16.3379 8.28613Z" fill="white"/>
</svg>
