<svg width="16" height="16" viewBox="0 0 16 16" fill="none" xmlns="http://www.w3.org/2000/svg">
<path fill-rule="evenodd" clip-rule="evenodd" d="M1.405 5.41334L7.025 2.34668C7.425 2.13334 7.905 2.13334 8.305 2.34668L14.6517 5.80668C14.865 5.92668 14.9983 6.14668 14.9983 6.39334V10.6667C14.9983 11.0333 14.6983 11.3333 14.3317 11.3333C13.965 11.3333 13.665 11.0333 13.665 10.6667V6.72668L8.305 9.65334C7.905 9.87334 7.425 9.87334 7.025 9.65334L1.405 6.58668C0.944998 6.33334 0.944998 5.66668 1.405 5.41334ZM2.99833 10.66V8.78668L7.025 10.9867C7.425 11.2067 7.905 11.2067 8.305 10.9867L12.3317 8.78668V10.66C12.3317 11.1467 12.065 11.6 11.6383 11.8333L8.305 13.6533C7.905 13.8733 7.425 13.8733 7.025 13.6533L3.69166 11.8333C3.265 11.6 2.99833 11.1467 2.99833 10.66Z" fill="#2883F3"/>
</svg>
