<svg width="10" height="10" viewBox="0 0 10 10" fill="none" xmlns="http://www.w3.org/2000/svg">
<path fill-rule="evenodd" clip-rule="evenodd" d="M8.33333 9.16667C8.33333 9.625 8.70833 10 9.16667 10C9.625 10 10 9.625 10 9.16667L10 0.833334C10 0.375 9.625 -3.27835e-08 9.16667 -7.28523e-08C8.70833 -1.12921e-07 8.33333 0.375 8.33333 0.833334L8.33333 9.16667ZM3.48335 5L0.250017 1.75833C-0.0749828 1.44166 -0.0749828 0.908332 0.241684 0.591665C0.566684 0.266666 1.09168 0.266666 1.41668 0.591665L5.24168 4.41667C5.56668 4.74167 5.56668 5.26667 5.24168 5.59167L1.41668 9.41666C1.09168 9.74166 0.566683 9.74166 0.241683 9.41666C-0.0833167 9.09166 -0.0833167 8.56666 0.241683 8.24166L3.48335 5Z" fill="#B3BAC5"/>
</svg>
