<svg width="16" height="18" viewBox="0 0 16 18" fill="none" xmlns="http://www.w3.org/2000/svg">
<path fill-rule="evenodd" clip-rule="evenodd" d="M1.26201 5.33161L6.97712 1.04528C7.6534 0.540448 8.58687 0.540448 9.26316 1.04528L14.9783 5.33161C15.4545 5.69357 15.7403 6.25555 15.7403 6.85564V15.4283C15.7403 16.4761 14.883 17.3333 13.8352 17.3333H2.40503C1.35727 17.3333 0.5 16.4761 0.5 15.4283V6.85564C0.5 6.25555 0.785755 5.69357 1.26201 5.33161ZM6.2151 13.7614C5.68904 13.7614 5.26259 14.1878 5.26259 14.7139C5.26259 15.24 5.68904 15.6664 6.2151 15.6664H10.0252C10.5512 15.6664 10.9777 15.24 10.9777 14.7139C10.9777 14.1878 10.5512 13.7614 10.0252 13.7614H6.2151Z" fill="white"/>
</svg>
