<svg width="21" height="20" viewBox="0 0 21 20" fill="none" xmlns="http://www.w3.org/2000/svg">
<path fill-rule="evenodd" clip-rule="evenodd" d="M17.6665 8.91669C17.8955 8.91669 18.1208 8.9013 18.3416 8.87151C18.391 9.24064 18.4166 9.61734 18.4166 10C18.4166 10.9969 18.2431 11.9543 17.9242 12.843L16.9829 12.5053C17.2635 11.7234 17.4166 10.8801 17.4166 10C17.4166 9.62831 17.3892 9.26299 17.3365 8.90596C17.4456 8.91308 17.5556 8.91669 17.6665 8.91669ZM9.99992 1.58334C11.0547 1.58334 12.0642 1.77737 12.9946 2.13169C12.876 2.44179 12.7875 2.76672 12.7324 3.10293C11.8868 2.76763 10.9649 2.58334 9.99992 2.58334C8.74533 2.58334 7.56489 2.89445 6.53006 3.44329L6.06151 2.55986C7.23715 1.93633 8.57805 1.58334 9.99992 1.58334ZM4.73216 4.77913C3.40322 6.11991 2.58325 7.96372 2.58325 10C2.58325 10.1398 2.58712 10.2788 2.59476 10.4167H1.59339C1.58666 10.2786 1.58325 10.1397 1.58325 10C1.58325 7.68949 2.51493 5.5956 4.02192 4.07516L4.73216 4.77913ZM10.4166 18.4065C12.9992 18.2806 15.2761 16.9902 16.733 15.0511L15.9335 14.4504C14.6576 16.1487 12.6714 17.2804 10.4166 17.4052V18.4065Z" fill="#505F79"/>
<path d="M19.6086 5.18262L19.6113 6.59602C19.6113 7.17208 18.3306 7.6389 16.751 7.6389C15.1714 7.6389 13.8907 7.17222 13.8907 6.59602L13.8904 5.18262C13.9992 5.72225 15.2428 6.1484 16.751 6.1484C18.2592 6.1484 19.4999 5.72232 19.6086 5.18262ZM19.6094 3.16899C19.6108 3.17613 19.6116 3.28836 19.6119 3.44674L19.6119 4.22161C19.6119 4.25603 19.6118 4.289 19.6118 4.32004L19.6113 4.58232C19.6113 5.15845 18.3306 5.62527 16.751 5.62527C15.1714 5.62527 13.8907 5.1586 13.8907 4.58232L13.8905 4.5347C13.8905 4.51945 13.8904 4.50087 13.8904 4.47942L13.8898 4.32005C13.8896 4.22693 13.8893 4.11648 13.889 4.00143L13.8889 3.28263C13.8893 3.21541 13.8899 3.17329 13.8907 3.16899C13.9994 3.70898 15.2428 4.13484 16.751 4.13484C18.2591 4.13484 19.5005 3.70906 19.6094 3.16899ZM16.751 0.694458C18.3306 0.694458 19.6113 1.16128 19.6113 1.73742V2.59322C19.6113 3.16936 18.3306 3.63611 16.751 3.63611C15.1714 3.63611 13.8907 3.16943 13.8907 2.59322V1.73742C13.8907 1.16128 15.1714 0.694458 16.751 0.694458Z" fill="#505F79"/>
<path fill-rule="evenodd" clip-rule="evenodd" d="M5.41669 3C5.00247 3 4.66669 3.33579 4.66669 3.75C4.66669 4.16421 5.00247 4.5 5.41669 4.5C5.8309 4.5 6.16669 4.16421 6.16669 3.75C6.16669 3.33579 5.8309 3 5.41669 3ZM3.66669 3.75C3.66669 2.7835 4.45019 2 5.41669 2C6.38319 2 7.16669 2.7835 7.16669 3.75C7.16669 4.02446 7.10351 4.28416 6.99089 4.51535C8.23014 5.49989 8.91184 6.50831 9.27403 7.54316C9.66678 8.6653 9.66673 9.77948 9.66669 10.8007L9.66669 10.8333H8.66669C8.66669 9.78009 8.66241 8.82274 8.33017 7.87351C8.03377 7.02665 7.4618 6.15251 6.31233 5.25375C6.05032 5.41014 5.74399 5.5 5.41669 5.5C4.45019 5.5 3.66669 4.7165 3.66669 3.75ZM13.4125 11.7474C12.5344 11.6574 11.5445 11.9241 10.4477 12.5223L9.96889 11.6444C11.1638 10.9926 12.3613 10.6344 13.5145 10.7526C14.5343 10.8572 15.4642 11.3287 16.2831 12.1933C16.5229 12.0697 16.795 12 17.0833 12C18.0498 12 18.8333 12.7835 18.8333 13.75C18.8333 14.7165 18.0498 15.5 17.0833 15.5C16.1168 15.5 15.3333 14.7165 15.3333 13.75C15.3333 13.4355 15.4163 13.1404 15.5615 12.8854C14.8826 12.1664 14.1619 11.8243 13.4125 11.7474ZM17.0833 13C16.6691 13 16.3333 13.3358 16.3333 13.75C16.3333 14.1642 16.6691 14.5 17.0833 14.5C17.4975 14.5 17.8333 14.1642 17.8333 13.75C17.8333 13.3358 17.4975 13 17.0833 13Z" fill="#505F79"/>
<g clip-path="url(#clip0_1_240)">
<path d="M8.33331 11.6667H1.66665C1.20415 11.6667 0.833313 12.0417 0.833313 12.5V17.5C0.833313 17.9583 1.20415 18.3333 1.66665 18.3333H8.33331C8.79165 18.3333 9.16665 17.9583 9.16665 17.5V12.5C9.16665 12.0417 8.79581 11.6667 8.33331 11.6667ZM8.33331 17.5H1.66665V13.3333H8.33331V17.5ZM4.99998 16.6667C4.99998 16.4375 5.18748 16.25 5.41665 16.25H7.08331C7.31248 16.25 7.49998 16.4375 7.49998 16.6667C7.49998 16.8958 7.31248 17.0833 7.08331 17.0833H5.41665C5.18748 17.0833 4.99998 16.8958 4.99998 16.6667ZM2.82915 14.0458C2.99165 13.8833 3.25415 13.8833 3.41665 14.0458L4.49581 15.125C4.65831 15.2875 4.65831 15.55 4.49581 15.7125L3.41665 16.7917C3.25415 16.9542 2.99165 16.9542 2.82915 16.7917C2.66665 16.6292 2.66665 16.3667 2.82915 16.2042L3.61248 15.4167L2.82915 14.6333C2.66665 14.4708 2.66665 14.2083 2.82915 14.0458Z" fill="#505F79"/>
</g>
<defs>
<clipPath id="clip0_1_240">
<rect width="10" height="10" fill="white" transform="translate(0 10)"/>
</clipPath>
</defs>
</svg>
