<svg width="16" height="16" viewBox="0 0 16 16" fill="none" xmlns="http://www.w3.org/2000/svg">
<path fill-rule="evenodd" clip-rule="evenodd" d="M8.16025 1.36063L10.8066 2.99453C10.8649 3.0305 10.9013 3.09761 10.9013 3.17082L10.9012 6.41296C10.9003 6.49935 10.8673 6.53896 10.8047 6.58689L8.16027 8.21965C8.13283 8.23658 8.09931 8.24692 8.06501 8.24692C8.03216 8.24692 7.99825 8.23724 7.96976 8.21965L5.32429 6.58691C5.26465 6.55112 5.22761 6.48315 5.22761 6.41052L5.22757 3.1696C5.22757 3.09765 5.264 3.03055 5.32236 2.99452L7.96974 1.36063C8.02865 1.32425 8.10134 1.32425 8.16025 1.36063ZM6.91229 9.41428L4.26599 7.78038C4.20708 7.744 4.13439 7.744 4.07548 7.78038L1.4281 9.41427C1.36974 9.45031 1.33331 9.5174 1.33331 9.58935L1.33335 12.8303C1.33335 12.9029 1.37039 12.9709 1.43003 13.0067L4.07549 14.6394C4.10399 14.657 4.1379 14.6667 4.17075 14.6667C4.20505 14.6667 4.23857 14.6563 4.26601 14.6394L6.9104 13.0066C6.97301 12.9587 7.00604 12.9191 7.00696 12.8327L7.00704 9.59058C7.00708 9.51736 6.97062 9.45025 6.91229 9.41428ZM14.5719 9.41428L11.9256 7.78038C11.8667 7.744 11.794 7.744 11.7351 7.78038L9.08768 9.41427C9.02931 9.45031 8.99289 9.5174 8.99289 9.58935L8.99293 12.8303C8.99293 12.9029 9.02996 12.9709 9.0896 13.0067L11.7351 14.6394C11.7636 14.657 11.7975 14.6667 11.8303 14.6667C11.8646 14.6667 11.8981 14.6563 11.9256 14.6394L14.57 13.0066C14.6326 12.9587 14.6656 12.9191 14.6665 12.8327L14.6666 9.59058C14.6667 9.51736 14.6302 9.45025 14.5719 9.41428Z" fill="#505F79"/>
</svg>
